<svg width="14" height="10" viewBox="0 0 14 10" fill="none" xmlns="http://www.w3.org/2000/svg">
<path d="M5.77533 3.73437C6.12168 3.37812 6.53184 3.2 7.0058 3.2C7.47976 3.2 7.88991 3.37812 8.23627 3.73437C8.58262 4.09062 8.7558 4.5125 8.7558 5C8.7558 5.4875 8.58262 5.90938 8.23627 6.26563C7.88991 6.62188 7.47976 6.8 7.0058 6.8C6.53184 6.8 6.12168 6.62188 5.77533 6.26563C5.42898 5.90938 5.2558 5.4875 5.2558 5C5.2558 4.5125 5.42898 4.09062 5.77533 3.73437ZM4.92767 7.1375C5.51101 7.71875 6.20371 8.00938 7.0058 8.00938C7.80788 8.00938 8.49148 7.71875 9.05658 7.1375C9.63991 6.5375 9.93158 5.825 9.93158 5C9.93158 4.175 9.63991 3.47187 9.05658 2.89062C8.49148 2.29062 7.80788 1.99062 7.0058 1.99062C6.20371 1.99062 5.51101 2.29062 4.92767 2.89062C4.36257 3.47187 4.08002 4.175 4.08002 5C4.08002 5.825 4.36257 6.5375 4.92767 7.1375ZM3.09564 1.7375C4.26231 0.912498 5.56569 0.499998 7.0058 0.499998C8.4459 0.499998 9.74929 0.912498 10.916 1.7375C12.0826 2.5625 12.9212 3.65 13.4316 5C12.9212 6.35 12.0826 7.4375 10.916 8.2625C9.74929 9.0875 8.4459 9.5 7.0058 9.5C5.56569 9.5 4.26231 9.0875 3.09564 8.2625C1.92898 7.4375 1.09043 6.35 0.580017 5C1.09043 3.65 1.92898 2.5625 3.09564 1.7375Z" fill="#C8C8C8"/>
</svg>
